<svg id="Layer_1" data-name="Layer 1" xmlns="http://www.w3.org/2000/svg" viewBox="0 0 350 250"><defs><style>.cls-1{fill:#f9f9fa;}.cls-2{fill:#00a195;stroke:#00a195;stroke-miterlimit:10;stroke-width:0.75px;}</style></defs><title>PAC-ICON-Sending-350x250</title><circle class="cls-1" cx="175" cy="125" r="121.77"/><path class="cls-2" d="M251.56,88.85H148.62A3.17,3.17,0,0,0,145.45,92v6H115.17a3.18,3.18,0,1,0,0,6.35h30.28v41.26h-18.1a3.18,3.18,0,1,0,0,6.35h18.1v6a3.17,3.17,0,0,0,3.17,3.18H251.56a3.18,3.18,0,0,0,3.18-3.18V92A3.18,3.18,0,0,0,251.56,88.85Zm-7.84,6.35L200.1,131,156.67,95.2ZM151.8,154.8V99.43l46.27,38.15a3.14,3.14,0,0,0,2,.73,3.18,3.18,0,0,0,2-.72l46.27-38v55.2Z"/><path class="cls-2" d="M135.72,124.68a3.18,3.18,0,0,0-3.18-3.18H98.44a3.18,3.18,0,1,0,0,6.36h34.1A3.19,3.19,0,0,0,135.72,124.68Z"/><path class="cls-2" d="M116.87,145.63h-1.7a3.18,3.18,0,1,0,0,6.35h1.7a3.18,3.18,0,0,0,0-6.35Z"/></svg>