<svg id="Layer_1" data-name="Layer 1" xmlns="http://www.w3.org/2000/svg" viewBox="0 0 350 250"><defs><style>.cls-1{fill:#f9f9fa;}.cls-2{fill:#00a195;}</style></defs><title>PAC-ICON-Requesting-350x250</title><circle class="cls-1" cx="175" cy="125" r="121.77"/><path class="cls-2" d="M236.15,63H113.85a8.41,8.41,0,0,0-8.4,8.4v84.44a8.41,8.41,0,0,0,8.4,8.4h41.91v6.11a10.17,10.17,0,0,1-10.16,10.15h-9.24a3.21,3.21,0,0,0,0,6.42h77.28a3.21,3.21,0,0,0,0-6.42H204.4a10.17,10.17,0,0,1-10.16-10.15v-6.11h41.91a8.41,8.41,0,0,0,8.4-8.4V71.44A8.41,8.41,0,0,0,236.15,63Zm-122.3,6.42h122.3a2,2,0,0,1,2,2v61.17H111.87V71.44A2,2,0,0,1,113.85,69.46Zm74,100.93a16.49,16.49,0,0,0,3.49,10.15H158.68a16.49,16.49,0,0,0,3.49-10.15v-6.11h25.66v6.11Zm48.32-12.53H113.85a2,2,0,0,1-2-2V139H238.13v16.85A2,2,0,0,1,236.15,157.86Z"/><circle class="cls-2" cx="175" cy="148.45" r="3.46"/><path class="cls-2" d="M172.4,122.47a2.82,2.82,0,0,0,4.75,1.37l5-5,6,6a2.85,2.85,0,0,0,4,0l6-6a2.82,2.82,0,0,0,0-4l-6-6,5-5a2.82,2.82,0,0,0-1.36-4.75l-26-6a2.83,2.83,0,0,0-3.39,3.39Zm17.13-19-3.39,3.39a2.82,2.82,0,0,0,0,4l6,6-2,2-6-6a2.82,2.82,0,0,0-4,0l-3.39,3.39-3.83-16.6Z"/><path class="cls-2" d="M159.37,90.08a2.84,2.84,0,0,0,2,.82,2.81,2.81,0,0,0,2-.82,2.84,2.84,0,0,0,0-4l-2.82-2.83a2.83,2.83,0,0,0-4,4Z"/><path class="cls-2" d="M153.87,99.38h4a2.83,2.83,0,1,0,0-5.65h-4a2.83,2.83,0,1,0,0,5.65Z"/><path class="cls-2" d="M159.37,103l-2.82,2.83a2.82,2.82,0,1,0,4,4l2.82-2.82a2.83,2.83,0,0,0-4-4Z"/><path class="cls-2" d="M178.33,90.9a2.8,2.8,0,0,0,2-.82l2.83-2.83a2.83,2.83,0,0,0-4-4l-2.82,2.83a2.82,2.82,0,0,0,2,4.82Z"/><path class="cls-2" d="M169.85,87.39a2.82,2.82,0,0,0,2.82-2.82v-4a2.83,2.83,0,0,0-5.65,0v4A2.83,2.83,0,0,0,169.85,87.39Z"/></svg>