<svg xmlns="http://www.w3.org/2000/svg" viewBox="0 0 82.52 72.45"><defs><style>.cls-1{fill:#00b188;}.cls-2{fill:#fff;}</style></defs><g id="Layer_2" data-name="Layer 2"><g id="Layer_1-2" data-name="Layer 1"><circle class="cls-1" cx="24.75" cy="12.5" r="12.5"/><path class="cls-1" d="M48.8,39.47c-1.46-10.3-7.39-15.11-12.09-16.79a16.9,16.9,0,0,1-9.17,6.09,10.79,10.79,0,0,1-5.64,0,16.9,16.9,0,0,1-9.17-6.09C8,24.36,2.1,29.17.65,39.47S-.25,52.9,7,55.14c7.06,2.17,28.32,2.17,35.39,0C49.69,52.9,50.25,49.77,48.8,39.47Z"/><path class="cls-1" d="M52.92,70.07c-8,0-14.94-.65-18.49-1.74-9.22-2.84-9.54-8-8.07-18.37,1.91-13.58,11-17.81,13.71-18.79l1.65-.59L42.77,32a14.59,14.59,0,0,0,7.94,5.25,8.29,8.29,0,0,0,4.42,0A14.59,14.59,0,0,0,63.07,32l1.05-1.41,1.66.59c2.73,1,11.79,5.21,13.71,18.79C81,60.31,80.63,65.49,71.41,68.33,67.86,69.42,61,70.07,52.92,70.07Z"/><path class="cls-2" d="M65,33.42c4.73,1.68,10.69,6.52,12.16,16.87S78,63.8,70.71,66.05C67.16,67.14,60,67.69,52.92,67.69s-14.24-.55-17.79-1.64c-7.31-2.25-7.88-5.4-6.41-15.76S36.14,35.1,40.87,33.42a17,17,0,0,0,9.21,6.12,10.8,10.8,0,0,0,5.68,0A17,17,0,0,0,65,33.42m-1.7-5.67-2.11,2.81a12.24,12.24,0,0,1-6.65,4.38,6.12,6.12,0,0,1-3.18,0,12.27,12.27,0,0,1-6.65-4.38l-2.11-2.81-3.31,1.18C36.22,30,26.1,34.73,24,49.63c-1.43,10.09-1.57,17.5,9.73,21,5.43,1.67,15.23,1.85,19.19,1.85s13.77-.18,19.19-1.85c11.3-3.47,11.16-10.88,9.74-21C79.74,34.73,69.63,30,66.58,28.93l-3.31-1.18Z"/><path class="cls-1" d="M53,38.12A14.95,14.95,0,1,1,67.89,23.18,15,15,0,0,1,53,38.12Z"/><path class="cls-2" d="M53,10.62A12.56,12.56,0,1,1,40.38,23.18,12.56,12.56,0,0,1,53,10.62m0-4.77A17.33,17.33,0,1,0,70.28,23.18,17.34,17.34,0,0,0,53,5.85Z"/></g></g></svg>